<svg width="300" height="682" viewBox="0 0 300 682" fill="none" xmlns="http://www.w3.org/2000/svg">
<path fill-rule="evenodd" clip-rule="evenodd" d="M86.0074 107.382L96.3236 90.5013L98.6677 77.3716L99.137 58.6146L100.544 45.485L103.826 32.824L111.797 18.757L120.238 8.90952L134.774 1.4067L151.655 0L161.034 3.28271L168.536 8.44082L171.35 16.881L167.13 19.6944L165.723 26.2592L170.881 33.2934L164.785 37.5135L154.938 45.485L153.062 52.5185L152.593 64.7107L160.096 82.5291L169.474 95.1901L178.383 110.196L183.541 120.978L179.321 128.951L170.881 129.418L165.254 137.859L156.814 150.052L154.469 165.526L157.752 184.286L170.412 203.98L180.259 208.667L184.948 219.453L196.669 221.8L205.109 233.52H223.397L234.183 233.054L259.504 241.494L267.477 241.021L289.051 259.781L299.365 269.161L280.604 265.875L272.637 270.095L252.004 263.061L236.997 256.028L225.743 248.527L217.303 244.774L207.923 249.461L200.423 252.747L204.176 261.188L200.889 287.915L195.263 305.735L198.076 313.235L204.643 312.296L199.483 320.736L195.736 335.276V340.903L190.106 339.963L187.293 326.369L169.474 331.523L158.22 334.336L150.249 333.402L151.655 330.116L158.689 327.303L167.13 324.489L155.876 324.022L150.717 323.549L146.497 317.922L159.627 316.989L174.633 317.922L184.948 313.235L187.762 294.948L189.169 282.755L184.948 278.535L176.977 266.348L177.446 253.681L175.57 247.587L157.752 244.774L154.938 250.868L155.876 261.188L159.158 267.754L154.469 276.661L147.904 285.101L141.339 296.822L141.808 304.328L147.435 307.609L158.22 305.735L161.972 307.142L154.938 312.296H148.373L141.339 311.362L138.526 318.862L141.808 332.462L133.368 326.369L131.961 317.922L124.927 318.395L108.046 323.549L98.6676 327.776H92.1028L95.3855 320.736L105.232 317.922L117.893 314.175H106.17L92.5721 315.109L88.8207 311.362L89.7587 307.142L99.1369 309.015L112.735 308.549L125.865 307.142L132.43 296.355L138.057 280.881V277.128L132.899 267.754L130.554 251.341L127.272 241.021L112.735 224.14L99.6058 211.013L86.9449 189.913L75.6913 166.466L71.473 145.365L71 131.298L79.4427 117.231L86.0075 107.382H86.0074Z" fill="black"/>
<path fill-rule="evenodd" clip-rule="evenodd" d="M172.999 33.3843L168.595 26.1186L169.256 20.614L172.779 17.972L179.383 22.3751L188.19 27.2194L191.273 31.4026L193.695 36.9066L188.851 36.2462L183.127 34.0446L177.842 33.6042L172.999 33.3843V33.3843Z" fill="black"/>
<path fill-rule="evenodd" clip-rule="evenodd" d="M182.246 111.985L184.888 117.71L185.108 126.955L180.705 131.359L173.219 132.244L170.137 135.322L163.972 143.909L159.789 153.596L157.366 161.963L159.568 173.192L164.192 183.764L171.237 196.092L177.402 203.138L183.127 204.68L187.31 211.726L189.291 215.688L200.521 220.092L206.025 228.674L213.292 231.536L228.483 230.879L230.246 224.275L241.475 220.749L242.353 212.383L241.911 205.116L246.094 203.359L244.116 191.688L237.949 179.58V189.047L235.307 201.596L227.383 209.963L220.116 218.772L211.086 218.987L200.963 213.268L197.658 207.1L203.826 209.084L213.728 213.483L220.995 207.1L229.361 200.933L234.208 190.588L235.086 178.039L232.224 170.108L225.399 160.421L219.017 148.092L212.849 136.642L205.582 125.198L195.238 115.726L182.246 111.985V111.985Z" fill="#FC0000"/>
<path fill-rule="evenodd" clip-rule="evenodd" d="M265.469 238.367L274.277 236.825L271.636 230.216L277.803 228.674L264.369 217.887L267.232 225.596L266.132 230.001L246.979 230.216L237.949 228.674L240.59 224.275L253.582 225.375H261.728L258.865 213.483L251.598 202.475L248.078 198.955L248.521 206.658L244.774 207.1L245.873 218.108L242.132 221.849L236.186 225.154L231.345 227.353L233.987 230.879L242.796 233.078L257.987 237.704L265.469 238.367Z" fill="black"/>
<path fill-rule="evenodd" clip-rule="evenodd" d="M138.966 24.3544L147.986 23.7321L151.718 19.6889L152.029 12.8458L148.608 8.18098L140.21 6.62563L136.167 11.2911L132.746 17.8227L138.966 24.3544H138.966Z" fill="white"/>
<path fill-rule="evenodd" clip-rule="evenodd" d="M138.966 19.3775L138.033 15.6451L140.522 11.2911L145.187 10.0472L147.675 12.2242L148.919 16.8896L146.12 21.5551L138.966 19.3775H138.966Z" fill="black"/>
<path d="M44.0341 666V302.364H263.494V341.426H88.0682V464.295H252.131V503.358H88.0682V626.938H266.335V666H44.0341Z" fill="#5BCCF6"/>
<path d="M44.0341 666H43.0341V667H44.0341V666ZM44.0341 302.364V301.364H43.0341V302.364H44.0341ZM263.494 302.364H264.494V301.364H263.494V302.364ZM263.494 341.426V342.426H264.494V341.426H263.494ZM88.0682 341.426V340.426H87.0682V341.426H88.0682ZM88.0682 464.295H87.0682V465.295H88.0682V464.295ZM252.131 464.295H253.131V463.295H252.131V464.295ZM252.131 503.358V504.358H253.131V503.358H252.131ZM88.0682 503.358V502.358H87.0682V503.358H88.0682ZM88.0682 626.938H87.0682V627.938H88.0682V626.938ZM266.335 626.938H267.335V625.938H266.335V626.938ZM266.335 666V667H267.335V666H266.335ZM45.0341 666V302.364H43.0341V666H45.0341ZM44.0341 303.364H263.494V301.364H44.0341V303.364ZM262.494 302.364V341.426H264.494V302.364H262.494ZM263.494 340.426H88.0682V342.426H263.494V340.426ZM87.0682 341.426V464.295H89.0682V341.426H87.0682ZM88.0682 465.295H252.131V463.295H88.0682V465.295ZM251.131 464.295V503.358H253.131V464.295H251.131ZM252.131 502.358H88.0682V504.358H252.131V502.358ZM87.0682 503.358V626.938H89.0682V503.358H87.0682ZM88.0682 627.938H266.335V625.938H88.0682V627.938ZM265.335 626.938V666H267.335V626.938H265.335ZM266.335 665H44.0341V667H266.335V665Z" fill="black"/>
</svg>
